HIERARCHY
ROOT joint_Root
{
	OFFSET 0.0 0.0 0.0
	CHANNELS 6 Xposition Yposition Zposition Zrotation Xrotation Yrotation 
	JOINT Hips
	{
		OFFSET -0.726466 93.3139 -2.00062
		CHANNELS 6 Xposition Yposition Zposition Zrotation Xrotation Yrotation 
		JOINT Spine
		{
			OFFSET 15.7357 0.0 0.0
			CHANNELS 6 Xposition Yposition Zposition Zrotation Xrotation Yrotation 
			JOINT Chest
			{
				OFFSET 8.98455 -0.406207 0.0
				CHANNELS 6 Xposition Yposition Zposition Zrotation Xrotation Yrotation 
				JOINT Neck
				{
					OFFSET 16.3773 0.0 0.0
					CHANNELS 6 Xposition Yposition Zposition Zrotation Xrotation Yrotation 
					JOINT Head
					{
						OFFSET 6.45672 0.0 0.0
						CHANNELS 6 Xposition Yposition Zposition Zrotation Xrotation Yrotation 
						End Site
						{
							OFFSET 0.0 0.0 0.0
						}
					}
				}
				JOINT Shoulder_L
				{
					OFFSET 12.9942 -0.242716 4.98039
					CHANNELS 6 Xposition Yposition Zposition Zrotation Xrotation Yrotation 
					JOINT UpperArm_L
					{
						OFFSET 5.34809 0.0 0.0
						CHANNELS 6 Xposition Yposition Zposition Zrotation Xrotation Yrotation 
						JOINT LowerArm_L
						{
							OFFSET 24.3286 1.87007e-05 0.0
							CHANNELS 6 Xposition Yposition Zposition Zrotation Xrotation Yrotation 
							JOINT Hand_L
							{
								OFFSET 22.2916 0.0 0.0
								CHANNELS 6 Xposition Yposition Zposition Zrotation Xrotation Yrotation 
								End Site
								{
									OFFSET 0.0 0.0 0.0
								}
							}
						}
					}
				}
				JOINT Shoulder_R
				{
					OFFSET 12.9945 -0.242716 -4.98039
					CHANNELS 6 Xposition Yposition Zposition Zrotation Xrotation Yrotation 
					JOINT UpperArm_R
					{
						OFFSET -5.34813 0.0 0.0
						CHANNELS 6 Xposition Yposition Zposition Zrotation Xrotation Yrotation 
						JOINT LowerArm_R
						{
							OFFSET -24.3289 0.000322201 0.0
							CHANNELS 6 Xposition Yposition Zposition Zrotation Xrotation Yrotation 
							JOINT Hand_R
							{
								OFFSET -22.2915 -0.000108084 0.0
								CHANNELS 6 Xposition Yposition Zposition Zrotation Xrotation Yrotation 
								End Site
								{
									OFFSET 0.0 0.0 0.0
								}
							}
						}
					}
				}
			}
		}
		JOINT UpperLeg_L
		{
			OFFSET -2.19248 -6.46944 0.0
			CHANNELS 6 Xposition Yposition Zposition Zrotation Xrotation Yrotation 
			JOINT LowerLeg_L
			{
				OFFSET 39.0811 0.0 -1.23785e-05
				CHANNELS 6 Xposition Yposition Zposition Zrotation Xrotation Yrotation 
				JOINT Foot_L
				{
					OFFSET 40.9854 0.0 -1.26872e-05
					CHANNELS 6 Xposition Yposition Zposition Zrotation Xrotation Yrotation 
					JOINT Toes_L
					{
						OFFSET 11.7543 0.0 0.0
						CHANNELS 6 Xposition Yposition Zposition Zrotation Xrotation Yrotation 
						End Site
						{
							OFFSET 0.0 0.0 0.0
						}
					}
				}
			}
		}
		JOINT UpperLeg_R
		{
			OFFSET -2.19251 6.46944 0.0
			CHANNELS 6 Xposition Yposition Zposition Zrotation Xrotation Yrotation 
			JOINT LowerLeg_R
			{
				OFFSET -39.0811 -0.00228153 -0.0401928
				CHANNELS 6 Xposition Yposition Zposition Zrotation Xrotation Yrotation 
				JOINT Foot_R
				{
					OFFSET -40.9854 0.0 0.0
					CHANNELS 6 Xposition Yposition Zposition Zrotation Xrotation Yrotation 
					JOINT Toes_R
					{
						OFFSET -11.7543 0.0 0.0
						CHANNELS 6 Xposition Yposition Zposition Zrotation Xrotation Yrotation 
						End Site
						{
							OFFSET 0.0 0.0 0.0
						}
					}
				}
			}
		}
	}
}
MOTION
Frames:	4
Frame Time:	0.0333333
0.000000 0.000000 0.000000 0.000000 0.000000 -0.000000 -0.380617 85.564600 62.657900 -85.182400 -12.900300 -179.874000 15.735700 0.000005 -0.000001 59.459900 81.538400 -57.059700 8.984550 -0.406207 -0.000000 7.055090 -8.585310 5.332640 16.377300 -0.000001 -0.000001 9.084400 -3.245790 -3.578060 6.456720 -0.000001 -0.000000 0.423834 2.780660 4.969220 12.994200 -0.242716 4.980390 -88.451600 -4.842270 -72.243600 5.348090 -0.000007 -0.000001 -44.420000 27.695000 -35.468600 24.328600 0.000019 0.000005 5.364870 3.526860 -56.772100 22.291600 -0.000001 0.000005 10.013700 5.562780 -9.324690 12.994500 -0.242716 -4.980390 88.448600 3.129780 -63.616200 -5.348130 -0.000001 -0.000004 -65.341100 21.740800 10.079600 -24.328900 0.000322 -0.000009 3.926430 6.783760 -30.165500 -22.291500 -0.000108 -0.000004 2.956930 5.531860 -7.876960 -2.192480 -6.469440 -0.000000 -165.194000 -2.833780 10.511400 39.081100 -0.000007 -0.000012 -0.045770 0.073407 31.944600 40.985400 -0.000006 -0.000013 -1.449090 9.557670 -71.135700 11.754300 -0.000000 0.000003 -0.088743 -0.415736 -33.876900 -2.192510 6.469440 -0.000001 -170.159000 20.431700 141.310000 -39.081100 -0.002282 -0.040193 0.068406 -0.118841 28.713900 -40.985400 0.000008 0.000006 6.478300 -8.880300 -45.421100 -11.754300 -0.000006 -0.000006 -0.029521 -0.215258 -25.390500
0.000000 0.000000 0.000000 0.000000 0.000000 -0.000000 0.244936 85.376400 56.932200 -84.507900 -12.557400 -177.379000 15.735700 0.000005 -0.000001 62.865000 80.965400 -60.086500 8.984550 -0.406207 -0.000000 8.585450 -8.182530 6.174620 16.377300 -0.000001 -0.000001 8.596280 -2.949070 -3.750760 6.456720 -0.000001 -0.000000 0.260793 2.604070 4.277090 12.994200 -0.242716 4.980390 -88.491200 -4.608270 -71.848100 5.348090 -0.000007 -0.000001 -46.957900 29.049900 -32.355300 24.328600 0.000019 0.000005 6.441280 4.228570 -56.850800 22.291600 -0.000001 0.000005 9.888300 5.564150 -9.392490 12.994500 -0.242716 -4.980390 88.505600 3.077170 -64.081400 -5.348130 -0.000001 -0.000004 -64.967800 21.497800 8.640640 -24.328900 0.000322 -0.000009 3.652690 6.681550 -28.759500 -22.291500 -0.000108 -0.000004 3.085650 5.531240 -7.849640 -2.192480 -6.469440 -0.000000 -164.097000 -1.178250 11.169800 39.081100 -0.000007 -0.000012 0.030561 -0.037863 38.906700 40.985400 -0.000006 -0.000013 -0.142094 7.435180 -62.566800 11.754300 -0.000000 0.000003 -0.178584 -0.608299 -42.500000 -2.192510 6.469440 -0.000001 -170.331000 20.213000 142.911000 -39.081100 -0.002282 -0.040193 0.057787 -0.070359 37.763000 -40.985400 0.000008 0.000006 8.007900 -8.515390 -50.769800 -11.754300 -0.000006 -0.000006 -0.018441 -0.158494 -23.045800
0.000000 0.000000 0.000000 0.000000 0.000000 -0.000000 0.953886 85.573700 51.663200 -83.923800 -12.029800 -175.234000 15.735700 0.000005 -0.000001 66.770400 80.475700 -63.729400 8.984550 -0.406207 -0.000000 10.005400 -7.407380 6.733990 16.377300 -0.000001 -0.000001 8.378210 -2.937930 -3.483470 6.456720 -0.000001 -0.000000 0.120200 2.166730 3.974900 12.994200 -0.242716 4.980390 -88.437900 -4.733080 -71.711200 5.348090 -0.000007 -0.000001 -50.104500 30.477000 -29.180000 24.328600 0.000019 0.000005 6.418010 4.397500 -55.719500 22.291600 -0.000001 0.000005 9.418680 5.564470 -9.408960 12.994500 -0.242716 -4.980390 88.531500 3.092950 -64.587300 -5.348130 -0.000001 -0.000004 -64.642200 22.338100 6.082190 -24.328900 0.000322 -0.000009 3.777440 7.268510 -27.564900 -22.291500 -0.000108 -0.000004 3.416110 5.530350 -7.809910 -2.192480 -6.469440 -0.000000 -163.761000 0.556682 8.492730 39.081100 -0.000007 -0.000012 0.118855 -0.103939 48.829400 40.985400 -0.000006 -0.000013 -0.088067 3.393290 -51.638500 11.754300 -0.000000 0.000003 -0.081646 -0.396536 -33.047000 -2.192510 6.469440 -0.000001 -169.746000 22.195200 146.254000 -39.081100 -0.002282 -0.040193 0.105678 -0.111089 42.671100 -40.985400 0.000008 0.000006 9.847480 -7.255080 -57.196800 -11.754300 -0.000006 -0.000006 -0.012941 -0.124439 -21.647300
0.000000 0.000000 0.000000 0.000000 0.000000 -0.000000 1.626380 86.031200 47.180400 -83.761400 -11.359400 -174.342000 15.735700 0.000005 -0.000001 70.686600 80.420300 -67.582900 8.984550 -0.406207 -0.000000 10.538100 -6.218580 6.782940 16.377300 -0.000001 -0.000001 8.204870 -3.139820 -2.900710 6.456720 -0.000001 -0.000000 0.453941 1.200460 4.078510 12.994200 -0.242716 4.980390 -88.393600 -4.805820 -71.492400 5.348090 -0.000007 -0.000001 -52.298500 32.511800 -26.842000 24.328600 0.000019 0.000005 6.322990 4.629150 -53.933000 22.291600 -0.000001 0.000005 8.511540 5.561670 -9.268360 12.994500 -0.242716 -4.980390 88.457400 3.296060 -64.902000 -5.348130 -0.000001 -0.000004 -63.950500 23.792000 3.389830 -24.328900 0.000322 -0.000009 3.612000 6.863400 -27.852100 -22.291500 -0.000108 -0.000004 3.862670 5.532160 -7.890300 -2.192480 -6.469440 -0.000000 -164.467000 1.607600 3.118150 39.081100 -0.000007 -0.000012 0.157405 -0.096496 58.488700 40.985400 -0.000006 -0.000013 1.755870 -1.507170 -41.455600 11.754300 -0.000000 0.000003 -0.004968 -0.061167 -19.065500 -2.192510 6.469440 -0.000001 -169.993000 21.857000 149.880000 -39.081100 -0.002282 -0.040193 0.091835 -0.090340 44.432800 -40.985400 0.000008 0.000006 9.271890 -7.733380 -61.524700 -11.754300 -0.000006 -0.000006 -0.010974 -0.110777 -21.087700
